<svg width="23" height="22" viewBox="0 0 23 22" fill="none" xmlns="http://www.w3.org/2000/svg">
<path d="M22.151 13.0687V21.1082H17.4899V13.6075C17.4899 11.7242 16.817 10.4381 15.1294 10.4381C13.8415 10.4381 13.0764 11.3039 12.7385 12.1424C12.6158 12.442 12.5842 12.8581 12.5842 13.2783V21.1078H7.92279C7.92279 21.1078 7.98535 8.40421 7.92279 7.08922H12.5845V9.07579C12.5751 9.09143 12.5619 9.10672 12.5536 9.12167H12.5845V9.07579C13.204 8.12265 14.3087 6.76004 16.7853 6.76004C19.8519 6.76004 22.151 8.76363 22.151 13.0687ZM3.04657 0.331757C1.4521 0.331757 0.408936 1.3784 0.408936 2.75353C0.408936 4.09946 1.42186 5.17634 2.98539 5.17634H3.01563C4.64139 5.17634 5.65222 4.09946 5.65222 2.75353C5.62129 1.3784 4.64139 0.331757 3.04657 0.331757ZM0.685977 21.1082H5.34564V7.08922H0.685977V21.1082Z" fill="#F1F2F2"/>
</svg>
