<svg width="19" height="25" viewBox="0 0 19 25" fill="none" xmlns="http://www.w3.org/2000/svg">
<path d="M11.074 18.1124C9.5998 17.9984 8.98037 17.2673 7.82426 16.5655C7.18885 19.8994 6.41231 23.0952 4.11224 24.7647C3.4014 19.7259 5.15434 15.9413 5.96842 11.924C4.5808 9.58817 6.13527 4.88654 9.06206 6.04509C12.6642 7.46955 5.9434 14.7306 10.4552 15.6375C15.1656 16.5843 17.0885 7.46434 14.1673 4.49792C9.9467 0.215147 1.88204 4.40059 2.87374 10.5316C3.11532 12.0304 4.66423 12.4854 3.49247 14.5536C0.791272 13.9554 -0.0144648 11.825 0.0891199 8.98474C0.256315 4.33559 4.26657 1.08032 8.289 0.629833C13.3761 0.0604643 18.1508 2.49783 18.8098 7.28289C19.5512 12.6835 16.5132 18.5323 11.074 18.1124Z" fill="#F1F2F2"/>
</svg>
